<?xml version="1.0" standalone="no"?>
<!DOCTYPE svg PUBLIC "-//W3C//DTD SVG 20010904//EN"
 "http://www.w3.org/TR/2001/REC-SVG-20010904/DTD/svg10.dtd">
<svg version="1.0" xmlns="http://www.w3.org/2000/svg"
 width="120.000000pt" height="120.000000pt" viewBox="0 0 120.000000 120.000000"
 preserveAspectRatio="xMidYMid meet">
<metadata>
Created by potrace 1.14, written by Peter Selinger 2001-2017
</metadata>
<g transform="translate(0.000000,120.000000) scale(0.100000,-0.100000)"
fill="#000000" stroke="none">
<path d="M456 1023 c-22 -64 -20 -77 15 -118 17 -19 26 -35 21 -35 -6 0 -14 4
-17 10 -3 5 -15 15 -26 21 -19 10 -19 9 -10 -10 11 -20 11 -20 -26 1 -21 12
-39 26 -41 30 -2 4 -8 8 -14 8 -5 0 -21 9 -35 20 -76 60 -46 -26 37 -104 27
-25 52 -46 57 -46 16 0 88 -42 100 -59 21 -29 28 -1 8 35 -15 29 -17 39 -7 55
16 24 15 130 0 166 -7 15 -20 38 -29 51 l-17 22 -16 -47z"/>
<path d="M606 973 c-14 -15 -29 -46 -34 -68 -5 -24 -14 -39 -21 -37 -22 5 -9
-142 14 -168 27 -30 34 -25 28 21 -9 63 26 117 99 151 36 17 38 16 85 -7 26
-14 64 -28 83 -31 43 -8 104 -38 130 -64 13 -13 20 -37 23 -77 l3 -58 2 59 c3
95 -41 140 -178 179 -108 30 -126 31 -165 8 -44 -26 -56 -26 -49 -3 4 9 -5 4
-20 -13 -14 -16 -25 -24 -26 -17 0 18 38 72 67 95 29 23 31 57 3 57 -10 0 -31
-12 -44 -27z m-29 -195 c-2 -13 -4 -5 -4 17 -1 22 1 32 4 23 2 -10 2 -28 0
-40z"/>
<path d="M223 808 c-11 -13 -24 -33 -27 -45 -4 -11 -13 -27 -21 -33 -8 -7 -15
-17 -15 -23 0 -5 19 10 43 35 59 63 60 63 190 32 15 -3 27 -2 27 2 0 13 -112
54 -147 54 -18 0 -38 -9 -50 -22z"/>
<path d="M681 812 c-52 -28 -71 -72 -71 -165 0 -86 -1 -83 98 -182 36 -36 147
-115 162 -115 5 0 27 -9 49 -21 22 -11 48 -19 58 -16 13 3 12 5 -6 6 -15 1
-21 6 -18 15 4 10 -1 13 -16 10 -12 -2 -16 -2 -10 2 10 4 10 9 -1 20 -19 19
-32 18 -16 -1 27 -32 -37 -7 -99 40 -32 24 -131 127 -131 136 0 6 -13 31 -30
56 -41 60 -41 108 1 150 35 37 82 51 106 32 8 -7 33 -50 55 -95 41 -84 53 -94
108 -94 14 0 36 -7 48 -16 24 -17 36 -16 24 2 -11 15 -60 44 -76 44 -22 0 -46
40 -45 75 1 21 3 24 6 9 3 -19 72 -84 87 -84 12 0 -16 55 -41 79 -14 14 -29
36 -34 49 -5 13 -14 22 -21 20 -6 -2 -23 9 -38 25 -34 38 -100 47 -149 19z"/>
<path d="M433 758 c2 -14 -22 -15 -88 -5 -22 3 -32 4 -22 1 20 -6 23 -24 5
-24 -7 0 -24 -3 -38 -5 -22 -5 -22 -4 -5 4 26 12 -2 13 -30 1 -17 -7 -17 -9
-2 -9 31 -2 18 -20 -20 -27 -44 -8 -73 -21 -73 -33 0 -5 21 -3 47 5 25 8 56
14 68 14 12 0 44 11 70 25 79 43 70 6 -11 -41 -57 -33 -100 -86 -120 -146 -18
-54 -14 -94 16 -161 18 -42 80 -118 80 -98 0 5 -5 13 -11 16 -24 16 -61 121
-62 180 -1 75 11 95 117 198 78 75 101 86 140 71 25 -9 19 -24 -9 -24 -34 0
-65 -33 -65 -70 0 -16 11 -59 25 -96 29 -77 31 -129 9 -203 -8 -29 -14 -69
-12 -89 3 -36 4 -34 52 63 58 120 64 175 26 240 -14 22 -30 46 -37 53 -7 7
-13 24 -13 38 0 20 5 24 28 24 15 0 38 -9 52 -20 24 -19 50 -26 50 -14 0 3 -6
11 -12 18 -12 12 -26 31 -46 62 -7 11 -94 64 -105 64 -4 0 -6 -6 -4 -12z"/>
<path d="M220 710 c0 -5 5 -10 11 -10 5 0 7 5 4 10 -3 6 -8 10 -11 10 -2 0 -4
-4 -4 -10z"/>
<path d="M130 689 c0 -5 5 -7 10 -4 6 3 10 8 10 11 0 2 -4 4 -10 4 -5 0 -10
-5 -10 -11z"/>
<path d="M379 643 c-71 -81 -81 -100 -80 -162 0 -36 7 -76 18 -99 l18 -40 0
92 c0 85 2 96 37 164 20 39 35 72 34 72 -2 0 -14 -12 -27 -27z"/>
<path d="M800 352 c0 -13 37 -31 76 -36 22 -3 30 -3 19 0 -11 4 -25 10 -30 14
-17 14 -65 30 -65 22z"/>
<path d="M1005 300 c3 -5 10 -10 16 -10 5 0 9 5 9 10 0 6 -7 10 -16 10 -8 0
-12 -4 -9 -10z"/>
<path d="M911 256 c-13 -13 -21 -32 -19 -43 4 -15 7 -14 18 9 7 15 27 34 44
42 31 15 31 16 5 16 -14 0 -35 -11 -48 -24z"/>
</g>
</svg>
