<svg width="85" height="85" viewBox="0 0 85 85" fill="none" xmlns="http://www.w3.org/2000/svg">
<rect width="75" height="75" rx="10" fill="#F9F7FF"/>
<g clip-path="url(#clip0_63_177)">
<path d="M69.2475 83.832L68.8985 78.3062C68.764 76.1826 68.0014 74.175 66.6931 72.5001C66.3195 72.0219 65.6292 71.9367 65.151 72.3107C64.6728 72.6843 64.588 73.3746 64.9615 73.8528C65.9962 75.1771 66.5991 76.7652 66.7056 78.4446L66.9805 82.8025H28.0194L28.2944 78.4452C28.4356 76.2182 29.4374 74.1823 31.1151 72.7127C32.1099 71.8417 33.3142 71.2141 34.5985 70.8973L40.5318 69.4308C41.3208 69.2356 41.8718 68.5325 41.8718 67.7212V63.4875C43.7748 64.251 45.7253 64.664 47.5001 64.664C49.251 64.664 51.178 64.2605 53.0609 63.5143V67.7036C53.0609 68.516 53.6114 69.2196 54.4 69.4149L60.4031 70.8976C60.9127 71.0228 61.4152 71.199 61.8965 71.4213C62.0456 71.4903 62.2022 71.5228 62.3565 71.5228C62.7716 71.5228 63.169 71.2862 63.3546 70.8846C63.6089 70.3336 63.3687 69.6809 62.8178 69.4266C62.2093 69.1455 61.5732 68.9225 60.9287 68.7642L55.2583 67.3635V62.4734C58.5104 60.6685 61.1976 57.9491 62.8693 54.7536C63.1506 54.216 62.9427 53.5521 62.4051 53.2709C61.8672 52.9892 61.2036 53.1973 60.9224 53.7351C59.3585 56.7247 56.7795 59.2467 53.6606 60.8363C51.5987 61.8878 49.4109 62.4668 47.5002 62.4668C45.566 62.4668 43.3562 61.8762 41.2759 60.8031C38.2563 59.2498 35.7356 56.8064 34.1782 53.923C33.8899 53.3891 33.2236 53.1901 32.6895 53.4786C32.1556 53.767 31.9566 54.4335 32.2451 54.9673C33.9071 58.0443 36.5303 60.6753 39.6749 62.4359V67.3795L34.0722 68.764C32.449 69.1642 30.9258 69.9579 29.6678 71.0597C27.5467 72.9177 26.2804 75.4912 26.1018 78.3065L25.7532 83.8321C25.734 84.1349 25.8411 84.4323 26.0486 84.6533C26.2562 84.8744 26.5461 84.9999 26.8496 84.9999H68.1511C68.4545 84.9999 68.7444 84.8745 68.9521 84.6533C69.1598 84.432 69.2667 84.1348 69.2475 83.832Z" fill="#423765"/>
<path d="M79.8385 27.2095C79.2318 27.2095 78.7399 27.7013 78.7399 28.3082V50.8414C78.7399 58.5478 70.5865 62.4574 65.7261 64.102C63.1421 64.9767 61.8226 64.5123 61.5663 63.9866C61.4136 63.6738 61.6098 63.2562 62.0434 62.971C63.9148 61.7405 71.4755 55.9849 71.4755 52.3623C71.4755 50.7261 71.3196 49.1559 71.1888 48.127C71.1142 47.5404 70.7615 47.0182 70.245 46.73C69.7278 46.4412 69.0973 46.4157 68.5581 46.6606L62.6917 49.3264C62.2706 49.5179 61.7816 49.4133 61.4757 49.0663C61.2846 48.8495 61.1933 48.5715 61.2187 48.2838C61.244 47.9959 61.3824 47.7383 61.6086 47.5581C62.6551 46.7243 63.5324 46.065 64.2683 45.541C64.2768 45.5347 64.2859 45.529 64.2941 45.5225C66.0371 44.2839 66.9734 43.8178 67.4308 43.6432C67.4524 43.6357 67.474 43.6282 67.4951 43.6194C67.7054 43.5441 67.7955 43.5384 67.8078 43.538H71.4055C72.0122 43.538 72.5041 43.0462 72.5041 42.4394V28.9329C72.5041 28.326 72.0122 27.8343 71.4055 27.8343C70.7987 27.8343 70.3068 28.326 70.3068 28.9329V41.3406H68.5559C68.8572 40.052 69.1218 38.3998 69.0457 36.7498C68.9382 34.4138 68.1519 32.6409 66.7615 31.5771C66.643 27.6963 65.6278 24.546 63.7401 22.2062C62.3943 20.5382 60.6456 19.3196 58.5377 18.574C57.856 15.0511 55.0567 11.9175 51.371 10.6375C48.195 9.53478 41.6567 8.9131 33.548 17.1423C33.1221 17.5744 33.1273 18.2699 33.5594 18.6957C33.9915 19.1217 34.6872 19.1166 35.113 18.6843C42.3738 11.3159 47.9639 11.7807 50.6497 12.7132C51.4154 12.9791 52.1047 13.3311 52.7197 13.7422C52.0154 13.7198 51.2998 13.7803 50.5965 13.928C48.3446 14.4017 46.1676 15.6522 43.9406 17.7514C43.4991 18.1675 43.4784 18.8629 43.8946 19.3045C44.1108 19.5338 44.4021 19.6495 44.6942 19.6495C44.9645 19.6495 45.2353 19.5503 45.4476 19.3504C47.372 17.5366 49.2042 16.4663 51.0486 16.0782C52.6337 15.7454 54.2793 15.9916 55.5086 16.734C56.0473 17.6805 56.3653 18.6553 56.4616 19.5304C56.4975 19.8483 56.5067 20.1599 56.4888 20.4577C56.465 20.865 56.3917 21.2783 56.2693 21.6968C55.884 23.0134 55.0111 24.384 53.6596 25.7992C52.5694 26.941 51.2919 27.985 50.0179 28.9077C50.0176 28.908 50.0173 28.9083 50.0169 28.9086C47.4169 30.7939 44.0828 32.6952 40.1068 34.5601C36.2749 36.3591 32.9418 39.6705 31.2758 43.2418C29.7424 42.2018 28.7834 41.731 28.1641 41.5175C27.5786 36.0855 27.92 28.5409 32.3871 21.9937C32.729 21.4926 32.5999 20.8091 32.0988 20.467C31.5975 20.125 30.914 20.2542 30.5721 20.7555C25.8451 27.6836 25.3734 35.5643 25.9368 41.3404H24.6934V28.9328C24.6934 28.3259 24.2015 27.8342 23.5948 27.8342C22.9881 27.8342 22.4962 28.3259 22.4962 28.9328V42.4392C22.4962 43.0461 22.9881 43.5378 23.5948 43.5378H27.1914C27.2316 43.5389 28.0563 43.5922 31.108 45.8116C31.1195 45.8204 31.1313 45.8288 31.1431 45.8372C31.7897 46.3083 32.5333 46.8737 33.392 47.5579C33.618 47.738 33.7566 47.9956 33.7819 48.2835C33.8072 48.5712 33.716 48.8491 33.5248 49.066C33.219 49.413 32.73 49.5176 32.3089 49.3262L26.4425 46.6603C25.9031 46.4154 25.2726 46.4412 24.7554 46.7297C24.2389 47.0179 23.886 47.5401 23.8116 48.1267C23.6808 49.1556 23.5249 50.7258 23.5249 52.362C23.5249 55.9846 31.0854 61.7402 32.957 62.9707C33.3906 63.2558 33.5868 63.6735 33.4341 63.9863C33.1776 64.5117 31.8581 64.9761 29.2741 64.1017C24.4139 62.4571 16.2605 58.5475 16.2605 50.8411V28.3085C16.2605 27.7016 15.7686 27.2098 15.1619 27.2098C14.5551 27.2098 14.0632 27.7016 14.0632 28.3085V50.8415C14.0632 54.7929 15.8007 58.2686 19.2277 61.1719C22.2335 63.7187 25.9671 65.3029 28.5698 66.1837C29.8213 66.6072 30.8944 66.786 31.7994 66.786C33.7488 66.7859 34.9185 65.9556 35.4089 64.9506C36.0503 63.6359 35.5271 62.0313 34.1644 61.1353C32.8412 60.2653 30.6739 58.5649 28.8148 56.7281C26.5347 54.4751 25.7223 52.9957 25.7223 52.3626C25.7223 51.0575 25.83 49.7893 25.9381 48.8452L31.3999 51.3271C32.707 51.9208 34.2237 51.5967 35.1733 50.5193C35.7663 49.8466 36.0495 48.9843 35.971 48.0911C35.8923 47.198 35.4628 46.3985 34.7614 45.8397C34.1592 45.3598 33.6083 44.9341 33.0985 44.5512C34.4715 41.3267 37.5703 38.1792 41.0406 36.55C44.906 34.7371 48.1964 32.8808 50.8321 31.0271C58.2771 33.7732 60.9499 39.3841 62.3505 44.2174C61.7217 44.6804 61.0227 45.2154 60.239 45.8397C59.5376 46.3985 59.108 47.198 59.0295 48.0913C58.9508 48.9844 59.2341 49.8466 59.8271 50.5194C60.7764 51.5967 62.293 51.9208 63.6005 51.3273L69.062 48.8454C69.1701 49.7893 69.2778 51.0577 69.2778 52.3628C69.2778 52.9959 68.4654 54.4754 66.1853 56.7283C64.3263 58.5652 62.1591 60.2654 60.8358 61.1354C59.473 62.0314 58.9498 63.636 59.5912 64.9507C60.0818 65.9559 61.251 66.7863 63.2007 66.7863C64.1057 66.7863 65.1791 66.6073 66.4303 66.184C69.0331 65.3032 72.7667 63.7188 75.7726 61.1722C79.1996 58.269 80.937 54.7932 80.937 50.8418V28.3086C80.9372 27.7014 80.4453 27.2095 79.8385 27.2095ZM52.8801 29.4815C55.5276 27.3216 58.2628 24.3746 58.6486 20.9825C62.5937 22.7712 64.0353 26.4752 64.4413 29.958L64.0153 29.658C63.5192 29.3087 62.8338 29.4276 62.4844 29.9236C62.1351 30.4197 62.2539 31.105 62.7499 31.4545L65.0412 33.0686C65.0536 33.0774 65.0671 33.0833 65.0797 33.0915C65.0948 33.1011 65.1085 33.1123 65.1242 33.1212C67.3738 34.4201 67.1155 38.4954 66.1688 41.7934C65.6803 42.0233 65.0535 42.372 64.2471 42.8954C62.8026 38.2752 59.9646 32.5952 52.8801 29.4815Z" fill="#423765"/>
</g>
<defs>
<clipPath id="clip0_63_177">
<rect width="75" height="75" fill="white" transform="translate(10 10)"/>
</clipPath>
</defs>
</svg>
