<svg width="25" height="26" viewBox="0 0 25 26" fill="none" xmlns="http://www.w3.org/2000/svg">
<circle cx="12.5" cy="13.1338" r="12.5" fill="white" fill-opacity="0.75"/>
<g clip-path="url(#clip0_63_549)">
<path d="M12.5004 5.63379C8.36495 5.63379 5.00049 8.99818 5.00049 13.1336C5.00049 17.2693 8.36495 20.6338 12.5004 20.6338C16.6358 20.6338 20.0002 17.2692 20.0002 13.1336C20.0002 8.99818 16.6358 5.63379 12.5004 5.63379ZM12.5004 19.5587C8.95777 19.5587 6.0756 16.6764 6.0756 13.1336C6.0756 9.591 8.95777 6.7089 12.5004 6.7089C16.043 6.7089 18.9251 9.591 18.9251 13.1336C18.9251 16.6764 16.043 19.5587 12.5004 19.5587Z" fill="#333333"/>
<path d="M16.3565 13.0081H12.832V9.15548C12.832 8.8586 12.5913 8.61792 12.2944 8.61792C11.9975 8.61792 11.7568 8.8586 11.7568 9.15548V13.5457C11.7568 13.8425 11.9975 14.0832 12.2944 14.0832H16.3565C16.6534 14.0832 16.894 13.8425 16.894 13.5457C16.894 13.2488 16.6533 13.0081 16.3565 13.0081Z" fill="#333333"/>
</g>
<defs>
<clipPath id="clip0_63_549">
<rect width="15" height="15" fill="white" transform="translate(5 5.63379)"/>
</clipPath>
</defs>
</svg>
