<svg width="20" height="20" viewBox="0 0 20 20" fill="none" xmlns="http://www.w3.org/2000/svg">
<circle cx="10" cy="10" r="10" fill="white" fill-opacity="0.3"/>
<g clip-path="url(#clip0_63_509)">
<path d="M14.2607 5.59322C13.2469 4.56575 11.8989 3.99994 10.4653 4C10.2304 4 10.04 4.19299 10.04 4.43104C10.04 4.66908 10.2305 4.86207 10.4653 4.86207C11.6718 4.86201 12.8061 5.33816 13.6592 6.20282C14.5124 7.06748 14.9822 8.21714 14.9821 9.43996C14.9821 9.678 15.1725 9.87099 15.4074 9.87099C15.6423 9.87099 15.8327 9.678 15.8327 9.44002C15.8328 7.98685 15.2745 6.6207 14.2607 5.59322Z" fill="white"/>
<path d="M12.5112 9.43992C12.5112 9.67797 12.7016 9.87096 12.9365 9.8709C13.1714 9.8709 13.3618 9.67791 13.3618 9.43986C13.3617 7.82147 12.0623 6.50462 10.4654 6.50439C10.4653 6.50439 10.4654 6.50439 10.4654 6.50439C10.2305 6.50439 10.0401 6.69733 10.04 6.93537C10.04 7.17342 10.2304 7.36641 10.4653 7.36647C11.5933 7.36664 12.5111 8.29676 12.5112 9.43992Z" fill="white"/>
<path d="M11.5701 11.6377C10.9219 11.6036 10.5916 12.0923 10.4333 12.327C10.3006 12.5235 10.3503 12.7917 10.5442 12.9261C10.7381 13.0605 11.0027 13.0102 11.1353 12.8137C11.3225 12.5364 11.4072 12.4928 11.5222 12.4983C11.8903 12.5421 13.34 13.6188 13.4851 13.9555C13.5215 14.0546 13.5202 14.1518 13.4811 14.27C13.3289 14.7278 13.077 15.0496 12.7524 15.2004C12.444 15.3436 12.066 15.3307 11.6593 15.163C10.141 14.5357 8.81439 13.6604 7.71658 12.5612C7.71613 12.5607 7.71567 12.5603 7.71528 12.5598C6.633 11.4483 5.77091 10.1055 5.15306 8.56897C4.98753 8.1565 4.97472 7.77328 5.11608 7.46081C5.26488 7.13184 5.58231 6.8765 6.03363 6.72242C6.15067 6.68265 6.24639 6.68138 6.3433 6.71793C6.67667 6.86558 7.73892 8.33478 7.78179 8.70363C7.78792 8.82455 7.74454 8.91041 7.47116 9.09972C7.27723 9.23397 7.22739 9.50219 7.35991 9.69875C7.49237 9.8953 7.75696 9.94576 7.95094 9.81151C8.18264 9.65116 8.66464 9.31737 8.63118 8.65811C8.59432 7.96949 7.27264 6.14586 6.64111 5.91052C6.36025 5.80443 6.06482 5.80259 5.76269 5.90534C5.08291 6.13736 4.59196 6.55104 4.34291 7.10161C4.10134 7.63575 4.109 8.25547 4.36531 8.89409C5.02655 10.5385 5.95169 11.9773 7.115 13.1707C7.11783 13.1736 7.12072 13.1765 7.12367 13.1793C8.3003 14.3561 9.71827 15.292 11.3386 15.9614C11.663 16.0951 11.9826 16.1621 12.2882 16.1621C12.5759 16.1621 12.8513 16.1028 13.1069 15.9841C13.6502 15.7317 14.0583 15.2342 14.2873 14.5447C14.3885 14.2391 14.3869 13.9398 14.283 13.6565C14.05 13.0147 12.2507 11.6751 11.5701 11.6377Z" fill="white"/>
</g>
<defs>
<clipPath id="clip0_63_509">
<rect width="12" height="12.1622" fill="white" transform="translate(4 4)"/>
</clipPath>
</defs>
</svg>
