<svg width="40" height="40" viewBox="0 0 40 40" fill="none" xmlns="http://www.w3.org/2000/svg">
<circle cx="20" cy="20" r="19.5" fill="white" stroke="#E7E5EF"/>
<g clip-path="url(#clip0_63_1294)">
<path d="M27.8752 12.1248C25.86 10.1096 23.1814 9 20.3313 9C20.3312 9 20.3305 9 20.3303 9C18.9207 9.00017 17.5471 9.27309 16.2478 9.81137C14.9483 10.3497 13.7841 11.128 12.7873 12.1248C10.7723 14.1398 9.66266 16.819 9.66266 19.6687C9.66266 21.3681 10.0727 23.057 10.8497 24.5617L9.0564 29.6848C8.93001 30.0461 9.01947 30.4389 9.29038 30.7096C9.47988 30.8993 9.7293 31 9.98577 31C10.0957 31 10.2068 30.9815 10.3152 30.9436L15.4383 29.1505C16.943 29.9275 18.6319 30.3375 20.3313 30.3375C23.181 30.3375 25.86 29.2277 27.8752 27.2127C29.8902 25.1977 31 22.5185 31 19.6688C31 16.819 29.8904 14.1398 27.8752 12.1248ZM26.9628 26.3003C25.1915 28.0717 22.8363 29.0471 20.3313 29.0471C18.7989 29.0471 17.2765 28.6681 15.9287 27.9507C15.6843 27.8208 15.3955 27.7985 15.1361 27.8893L10.4818 29.5182L12.1109 24.8639C12.2017 24.6042 12.1792 24.3153 12.0493 24.0711C11.3321 22.7236 10.9529 21.2013 10.9529 19.6687C10.9529 17.1637 11.9284 14.8085 13.6997 13.0372C15.4708 11.2661 17.8257 10.2906 20.3305 10.2902H20.3313C22.8364 10.2902 25.1915 11.2658 26.9628 13.0372C28.7342 14.8085 29.7098 17.1636 29.7098 19.6687C29.7098 22.1738 28.7342 24.529 26.9628 26.3003Z" fill="#4A426D"/>
<path d="M24.2964 20.6217C23.8056 20.1309 23.007 20.1309 22.5162 20.6217L21.9795 21.1584C20.6466 20.4322 19.568 19.3536 18.8416 18.0207L19.3783 17.4839C19.8693 16.9931 19.8693 16.1945 19.3783 15.7038L17.9318 14.2572C17.441 13.7665 16.6424 13.7665 16.1516 14.2572L14.9945 15.4144C14.3317 16.0772 14.2986 17.2167 14.9014 18.6231C15.4247 19.8442 16.3824 21.1863 17.5981 22.402C18.8139 23.6177 20.156 24.5755 21.377 25.0988C22.0452 25.3851 22.653 25.528 23.1782 25.528C23.7585 25.528 24.2378 25.3536 24.5858 25.0056L25.7429 23.8483V23.8485C25.9807 23.6107 26.1117 23.2946 26.1117 22.9584C26.1117 22.6221 25.9807 22.306 25.7429 22.0683L24.2964 20.6217ZM23.6734 24.0932C23.4842 24.2824 22.9024 24.3487 21.8855 23.913C20.8116 23.4527 19.613 22.592 18.5106 21.4896C17.4081 20.3872 16.5476 19.1888 16.0874 18.1149C15.6515 17.0979 15.7178 16.516 15.9069 16.3268L17.0419 15.1918L18.4438 16.5938L17.7719 17.2659C17.4681 17.5697 17.3947 18.0304 17.5896 18.4125C18.473 20.1446 19.8555 21.5272 21.5877 22.4106C21.9699 22.6054 22.4306 22.5323 22.7344 22.2283L23.4063 21.5564L24.8083 22.9584L23.6734 24.0932Z" fill="#4A426D"/>
</g>
<defs>
<clipPath id="clip0_63_1294">
<rect width="22" height="22" fill="white" transform="translate(9 9)"/>
</clipPath>
</defs>
</svg>
