<svg width="20" height="20" viewBox="0 0 20 20" fill="none" xmlns="http://www.w3.org/2000/svg">
<circle cx="10" cy="10" r="10" fill="white" fill-opacity="0.3"/>
<g clip-path="url(#clip0_63_501)">
<path d="M10.0004 4C6.69206 4 4.00049 6.69151 4.00049 9.99983C4.00049 13.3084 6.69206 16 10.0004 16C13.3087 16 16.0003 13.3083 16.0003 9.99983C16.0003 6.69151 13.3087 4 10.0004 4ZM10.0004 15.1399C7.16631 15.1399 4.86058 12.8341 4.86058 9.99983C4.86058 7.16577 7.16631 4.86009 10.0004 4.86009C12.8345 4.86009 15.1402 7.16577 15.1402 9.99983C15.1402 12.8341 12.8345 15.1399 10.0004 15.1399Z" fill="white"/>
<path d="M13.0852 9.89936H10.2656V6.81725C10.2656 6.57975 10.0731 6.38721 9.83556 6.38721C9.59806 6.38721 9.40552 6.57975 9.40552 6.81725V10.3294C9.40552 10.5669 9.59806 10.7595 9.83556 10.7595H13.0852C13.3228 10.7595 13.5153 10.5669 13.5153 10.3294C13.5153 10.0919 13.3227 9.89936 13.0852 9.89936Z" fill="white"/>
</g>
<defs>
<clipPath id="clip0_63_501">
<rect width="12" height="12" fill="white" transform="translate(4 4)"/>
</clipPath>
</defs>
</svg>
