<svg width="25" height="26" viewBox="0 0 25 26" fill="none" xmlns="http://www.w3.org/2000/svg">
<circle cx="12.5" cy="13.1338" r="12.5" fill="white" fill-opacity="0.75"/>
<g clip-path="url(#clip0_63_557)">
<path d="M17.8258 7.62532C16.5586 6.34097 14.8737 5.63372 13.0817 5.63379C12.788 5.63379 12.55 5.87503 12.55 6.17258C12.55 6.47014 12.7881 6.71138 13.0817 6.71138C14.5897 6.71131 16.0076 7.30649 17.074 8.38732C18.1405 9.46814 18.7277 10.9052 18.7276 12.4337C18.7276 12.7313 18.9656 12.9725 19.2593 12.9725C19.5529 12.9725 19.7909 12.7313 19.7909 12.4338C19.7909 10.6174 19.0931 8.90966 17.8258 7.62532Z" fill="#333333"/>
<path d="M15.639 12.4338C15.639 12.7314 15.877 12.9726 16.1707 12.9725C16.4643 12.9725 16.7022 12.7313 16.7022 12.4337C16.7021 10.4107 15.0779 8.76469 13.0817 8.7644C13.0817 8.7644 13.0818 8.7644 13.0817 8.7644C12.7881 8.7644 12.5501 9.00557 12.55 9.30313C12.55 9.60069 12.788 9.84192 13.0816 9.84199C14.4916 9.84221 15.6388 11.0049 15.639 12.4338Z" fill="#333333"/>
<path d="M14.4626 15.181C13.6523 15.1385 13.2395 15.7492 13.0415 16.0426C12.8757 16.2882 12.9378 16.6235 13.1802 16.7916C13.4225 16.9596 13.7533 16.8967 13.9191 16.651C14.153 16.3044 14.259 16.2499 14.4027 16.2568C14.8628 16.3116 16.6749 17.6574 16.8564 18.0783C16.9019 18.2022 16.9002 18.3237 16.8513 18.4714C16.6611 19.0437 16.3462 19.4459 15.9404 19.6344C15.555 19.8135 15.0824 19.7972 14.5741 19.5876C12.6761 18.8036 11.0179 17.7094 9.64567 16.3354C9.6451 16.3348 9.64453 16.3343 9.64404 16.3337C8.29119 14.9443 7.21358 13.2658 6.44126 11.3451C6.23436 10.8295 6.21834 10.3505 6.39504 9.95992C6.58104 9.54871 6.97783 9.22953 7.54198 9.03693C7.68828 8.98722 7.80792 8.98564 7.92906 9.03133C8.34577 9.21588 9.67359 11.0524 9.72718 11.5134C9.73483 11.6646 9.68061 11.7719 9.33889 12.0086C9.09648 12.1764 9.03417 12.5117 9.19982 12.7573C9.3654 13.003 9.69613 13.0661 9.93862 12.8983C10.2282 12.6979 10.8307 12.2806 10.7889 11.4566C10.7428 10.5958 9.09074 8.31624 8.30133 8.02206C7.95025 7.88944 7.58096 7.88714 7.2033 8.01559C6.35358 8.30561 5.73989 8.82271 5.42858 9.51093C5.12662 10.1786 5.13619 10.9532 5.45657 11.7515C6.28312 13.807 7.43955 15.6055 8.89368 17.0972C8.89723 17.1009 8.90084 17.1045 8.90453 17.108C10.3753 18.5791 12.1478 19.749 14.1731 20.5857C14.5787 20.7528 14.9781 20.8365 15.3601 20.8365C15.7198 20.8365 16.0641 20.7624 16.3835 20.614C17.0626 20.2985 17.5728 19.6766 17.8591 18.8148C17.9856 18.4328 17.9835 18.0587 17.8537 17.7045C17.5624 16.9023 15.3133 15.2278 14.4626 15.181Z" fill="#333333"/>
</g>
<defs>
<clipPath id="clip0_63_557">
<rect width="15" height="15.2027" fill="white" transform="translate(5 5.63379)"/>
</clipPath>
</defs>
</svg>
