<svg width="25" height="25" viewBox="0 0 25 25" fill="none" xmlns="http://www.w3.org/2000/svg">
<circle cx="12.5" cy="12.5" r="12.5" fill="#E7E5EF"/>
<path d="M12.4999 5C9.31266 5 6.71973 7.59328 6.71973 10.7809C6.71973 13.0586 7.6733 15.3625 9.47737 17.4437C10.8248 18.9981 12.1602 19.8788 12.2164 19.9156C12.3025 19.9719 12.4013 20 12.5 20C12.5986 20 12.6974 19.9719 12.7835 19.9156C12.8397 19.8788 14.1753 18.9981 15.5227 17.4438C17.3269 15.3625 18.2806 13.0586 18.2806 10.7809C18.2805 7.59328 15.6873 5 12.4999 5ZM12.4999 18.8456C11.4368 18.0534 7.75607 15.0046 7.75607 10.7809C7.75607 8.16472 9.88411 6.03635 12.4999 6.03635C15.1159 6.03635 17.2442 8.16472 17.2442 10.7809C17.2442 15.0046 13.5631 18.0534 12.4999 18.8456Z" fill="#333333"/>
<path d="M12.5002 8.4856C11.2352 8.4856 10.2061 9.51482 10.2061 10.78C10.2061 12.0448 11.2352 13.0738 12.5002 13.0738C13.7653 13.0738 14.7944 12.0448 14.7944 10.78C14.7944 9.51489 13.7652 8.4856 12.5002 8.4856ZM12.5002 12.0375C11.8067 12.0375 11.2424 11.4734 11.2424 10.78C11.2424 10.0863 11.8067 9.52194 12.5002 9.52194C13.1938 9.52194 13.758 10.0863 13.758 10.78C13.758 11.4734 13.1938 12.0375 12.5002 12.0375Z" fill="#333333"/>
</svg>
