<svg width="25" height="25" viewBox="0 0 25 25" fill="none" xmlns="http://www.w3.org/2000/svg">
<circle cx="12.5" cy="12.5" r="12.5" fill="#EFD4E8" fill-opacity="0.5"/>
<g clip-path="url(#clip0_63_518)">
<path d="M17.422 7.578C16.1625 6.31852 14.4884 5.625 12.7071 5.625C12.707 5.625 12.7066 5.625 12.7065 5.625C11.8255 5.6251 10.9669 5.79568 10.1549 6.13211C9.3427 6.46853 8.61509 6.95498 7.99206 7.578C6.73268 8.83738 6.03916 10.5119 6.03916 12.2929C6.03916 13.3551 6.29544 14.4106 6.78105 15.3511L5.66025 18.553C5.58126 18.7788 5.63717 19.0243 5.80649 19.1935C5.92492 19.3121 6.08081 19.375 6.2411 19.375C6.30982 19.375 6.37926 19.3635 6.44703 19.3398L9.64892 18.2191C10.5894 18.7047 11.6449 18.9609 12.7071 18.9609C14.4881 18.9609 16.1625 18.2673 17.422 17.0079C18.6814 15.7486 19.375 14.0741 19.375 12.293C19.375 10.5119 18.6815 8.83738 17.422 7.578ZM16.8517 16.4377C15.7447 17.5448 14.2727 18.1544 12.7071 18.1544C11.7493 18.1544 10.7978 17.9176 9.95545 17.4692C9.80271 17.388 9.62217 17.3741 9.46009 17.4308L6.5511 18.4489L7.5693 15.5399C7.62605 15.3776 7.61199 15.1971 7.5308 15.0445C7.08254 14.2023 6.84556 13.2508 6.84556 12.2929C6.84556 10.7273 7.45526 9.25531 8.56232 8.14826C9.66927 7.04131 11.1411 6.43161 12.7066 6.4314H12.7071C14.2728 6.4314 15.7447 7.0411 16.8517 8.14826C17.9589 9.25531 18.5686 10.7272 18.5686 12.2929C18.5686 13.8586 17.9589 15.3306 16.8517 16.4377Z" fill="white"/>
<path d="M15.1851 12.8885C14.8783 12.5817 14.3792 12.5817 14.0725 12.8885L13.737 13.224C12.9039 12.77 12.2298 12.0959 11.7758 11.2629L12.1113 10.9274C12.4181 10.6207 12.4181 10.1215 12.1113 9.81478L11.2072 8.91072C10.9005 8.60398 10.4013 8.60398 10.0946 8.91072L9.37139 9.63393C8.95712 10.0482 8.93645 10.7604 9.31317 11.6394C9.64026 12.4026 10.2388 13.2414 10.9987 14.0012C11.7585 14.761 12.5973 15.3596 13.3605 15.6867C13.7781 15.8657 14.158 15.9549 14.4862 15.9549C14.8489 15.9549 15.1485 15.8459 15.3659 15.6285L16.0891 14.9052V14.9053C16.2378 14.7566 16.3196 14.5591 16.3196 14.349C16.3196 14.1387 16.2378 13.9412 16.0891 13.7926L15.1851 12.8885ZM14.7957 15.0582C14.6774 15.1764 14.3138 15.2179 13.6782 14.9455C13.0071 14.6579 12.2579 14.1199 11.5689 13.4309C10.8799 12.7419 10.3421 11.9929 10.0544 11.3217C9.78198 10.6861 9.82342 10.3224 9.94165 10.2042L10.651 9.49483L11.5272 10.3711L11.1072 10.7911C10.9174 10.981 10.8715 11.269 10.9933 11.5077C11.5454 12.5903 12.4095 13.4544 13.4921 14.0065C13.731 14.1283 14.019 14.0826 14.2088 13.8926L14.6288 13.4727L15.505 14.349L14.7957 15.0582Z" fill="white"/>
</g>
<defs>
<clipPath id="clip0_63_518">
<rect width="13.75" height="13.75" fill="white" transform="translate(5.625 5.625)"/>
</clipPath>
</defs>
</svg>
