<svg width="25" height="25" viewBox="0 0 25 25" fill="none" xmlns="http://www.w3.org/2000/svg">
<circle cx="12.5" cy="12.5" r="12.5" fill="#EFD4E8" fill-opacity="0.5"/>
<g clip-path="url(#clip0_63_523)">
<path d="M19.1058 6.75164C18.8845 6.54896 18.5701 6.48142 18.2852 6.57533L6.19517 10.5607C5.86568 10.6693 5.64225 10.9634 5.62595 11.31C5.60967 11.6565 5.80451 11.9703 6.12232 12.1094L9.11227 13.4176C9.12685 13.4852 9.98518 17.4662 10.0144 17.6015C10.0518 17.7753 10.1401 17.9301 10.3269 17.9778C10.516 18.0259 10.6495 17.9226 10.7906 17.817C10.8691 17.7582 13.0094 16.1556 13.0094 16.1556L15.6033 18.2782C15.7544 18.4019 15.9391 18.4664 16.1273 18.4664C16.217 18.4664 16.3075 18.4518 16.3955 18.4219C16.6685 18.3294 16.8709 18.1065 16.9369 17.8259L19.353 7.55365C19.4217 7.2616 19.327 6.95432 19.1058 6.75164ZM10.9839 14.1672C10.9824 14.1707 10.9809 14.1746 10.9796 14.1794L10.4794 15.9268L9.92124 13.3381L13.7593 11.2056L11.0759 14.0114C11.0336 14.0556 11.0025 14.109 10.9839 14.1672ZM11.1426 16.5446L11.3698 15.7509L11.5871 14.9917L12.3656 15.6288L11.1426 16.5446ZM18.5669 7.36872L16.1508 17.641C16.1496 17.6461 16.148 17.6531 16.1362 17.6571C16.1245 17.6611 16.1188 17.6566 16.1148 17.6532L13.2764 15.3306C13.2763 15.3305 13.2762 15.3304 13.2762 15.3304L11.9611 14.2542L16.1861 9.83655C16.324 9.69226 16.3359 9.4688 16.2138 9.31075C16.0918 9.15268 15.8726 9.10754 15.6981 9.20454L9.44211 12.6804L6.44603 11.3695C6.4369 11.3655 6.43188 11.3633 6.4326 11.3479C6.43333 11.3325 6.43854 11.3307 6.44799 11.3276L18.538 7.34227C18.5439 7.34036 18.5505 7.33816 18.5602 7.34703C18.5699 7.35594 18.5683 7.36271 18.5669 7.36872Z" fill="white"/>
</g>
<defs>
<clipPath id="clip0_63_523">
<rect width="13.75" height="13.75" fill="white" transform="translate(5.625 5.625)"/>
</clipPath>
</defs>
</svg>
