<svg width="25" height="25" viewBox="0 0 25 25" fill="none" xmlns="http://www.w3.org/2000/svg">
<circle cx="12.5" cy="12.5" r="12.5" fill="#E7E5EF"/>
<g clip-path="url(#clip0_63_1281)">
<path d="M17.8256 6.99153C16.5584 5.70719 14.8734 4.99993 13.0814 5C12.7878 5 12.5498 5.24124 12.5498 5.53879C12.5498 5.83635 12.7878 6.07759 13.0814 6.07759C14.5895 6.07752 16.0073 6.67271 17.0737 7.75353C18.1402 8.83435 18.7275 10.2714 18.7274 11.7999C18.7274 12.0975 18.9654 12.3387 19.259 12.3387C19.5526 12.3387 19.7906 12.0975 19.7906 11.8C19.7907 9.98356 19.0929 8.27587 17.8256 6.99153Z" fill="#333333"/>
<path d="M15.6387 11.8C15.6387 12.0976 15.8768 12.3388 16.1704 12.3387C16.464 12.3387 16.702 12.0975 16.702 11.8C16.7018 9.77696 15.0776 8.1309 13.0815 8.13062C13.0814 8.13062 13.0816 8.13062 13.0815 8.13062C12.7879 8.13062 12.5499 8.37178 12.5498 8.66934C12.5498 8.9669 12.7878 9.20813 13.0813 9.2082C14.4914 9.20842 15.6386 10.3711 15.6387 11.8Z" fill="#333333"/>
<path d="M14.4626 14.5472C13.6523 14.5047 13.2395 15.1154 13.0415 15.4088C12.8757 15.6545 12.9378 15.9897 13.1802 16.1578C13.4225 16.3258 13.7533 16.2629 13.9191 16.0172C14.153 15.6706 14.259 15.6161 14.4027 15.623C14.8628 15.6778 16.6749 17.0236 16.8564 17.4445C16.9019 17.5684 16.9002 17.6899 16.8513 17.8377C16.6611 18.4099 16.3462 18.8121 15.9404 19.0006C15.555 19.1797 15.0824 19.1634 14.5741 18.9538C12.6761 18.1698 11.0179 17.0756 9.64567 15.7016C9.6451 15.701 9.64453 15.7005 9.64404 15.6999C8.29119 14.3105 7.21358 12.632 6.44126 10.7113C6.23436 10.1957 6.21834 9.71672 6.39504 9.32613C6.58104 8.91493 6.97783 8.59574 7.54198 8.40314C7.68828 8.35343 7.80792 8.35185 7.92906 8.39754C8.34577 8.58209 9.67359 10.4186 9.72718 10.8797C9.73483 11.0308 9.68061 11.1381 9.33889 11.3748C9.09648 11.5426 9.03417 11.8779 9.19982 12.1236C9.3654 12.3692 9.69613 12.4323 9.93862 12.2645C10.2282 12.0641 10.8307 11.6468 10.7889 10.8228C10.7428 9.96198 9.09074 7.68245 8.30133 7.38827C7.95025 7.25565 7.58096 7.25335 7.2033 7.3818C6.35358 7.67182 5.73989 8.18892 5.42858 8.87714C5.12662 9.54481 5.13619 10.3195 5.45657 11.1177C6.28312 13.1732 7.43955 14.9717 8.89368 16.4634C8.89723 16.4671 8.90084 16.4707 8.90453 16.4742C10.3753 17.9453 12.1478 19.1152 14.1731 19.9519C14.5787 20.1191 14.9781 20.2027 15.3601 20.2027C15.7198 20.2027 16.0641 20.1286 16.3835 19.9802C17.0626 19.6647 17.5728 19.0428 17.8591 18.181C17.9856 17.799 17.9835 17.4249 17.8537 17.0707C17.5624 16.2685 15.3133 14.594 14.4626 14.5472Z" fill="#333333"/>
</g>
<defs>
<clipPath id="clip0_63_1281">
<rect width="15" height="15.2027" fill="white" transform="translate(5 5)"/>
</clipPath>
</defs>
</svg>
