<svg width="25" height="25" viewBox="0 0 25 25" fill="none" xmlns="http://www.w3.org/2000/svg">
<circle cx="12.5" cy="12.5" r="12.5" fill="#E7E5EF"/>
<g clip-path="url(#clip0_63_1273)">
<path d="M12.5004 5C8.36495 5 5.00049 8.36439 5.00049 12.4998C5.00049 16.6355 8.36495 20 12.5004 20C16.6358 20 20.0002 16.6354 20.0002 12.4998C20.0002 8.36439 16.6358 5 12.5004 5ZM12.5004 18.9249C8.95777 18.9249 6.0756 16.0426 6.0756 12.4998C6.0756 8.95721 8.95777 6.07511 12.5004 6.07511C16.043 6.07511 18.9251 8.95721 18.9251 12.4998C18.9251 16.0426 16.043 18.9249 12.5004 18.9249Z" fill="#333333"/>
<path d="M16.3565 12.3743H12.832V8.52169C12.832 8.22481 12.5913 7.98413 12.2944 7.98413C11.9975 7.98413 11.7568 8.22481 11.7568 8.52169V12.9119C11.7568 13.2088 11.9975 13.4494 12.2944 13.4494H16.3565C16.6534 13.4494 16.894 13.2088 16.894 12.9119C16.894 12.615 16.6533 12.3743 16.3565 12.3743Z" fill="#333333"/>
</g>
<defs>
<clipPath id="clip0_63_1273">
<rect width="15" height="15" fill="white" transform="translate(5 5)"/>
</clipPath>
</defs>
</svg>
