<svg width="40" height="40" viewBox="0 0 40 40" fill="none" xmlns="http://www.w3.org/2000/svg">
<circle cx="20" cy="20" r="19.5" fill="white" stroke="#E7E5EF"/>
<g clip-path="url(#clip0_63_1299)">
<path d="M30.5692 10.8026C30.2153 10.4783 29.7122 10.3702 29.2563 10.5205L9.91228 16.8971C9.3851 17.0709 9.0276 17.5414 9.00151 18.0959C8.97547 18.6503 9.28721 19.1524 9.79571 19.375L14.5796 21.4681C14.603 21.5763 15.9763 27.9459 16.023 28.1624C16.0829 28.4405 16.2241 28.6882 16.5231 28.7644C16.8256 28.8414 17.0392 28.6761 17.2649 28.5072C17.3905 28.4131 20.815 25.8489 20.815 25.8489L24.9653 29.2451C25.207 29.443 25.5025 29.5462 25.8038 29.5462C25.9472 29.5462 26.092 29.5228 26.2328 29.475C26.6697 29.3269 26.9935 28.9704 27.099 28.5214L30.9648 12.0858C31.0746 11.6185 30.9231 11.1269 30.5692 10.8026ZM17.5742 22.6674C17.5718 22.673 17.5695 22.6794 17.5673 22.6869L16.767 25.4828L15.874 21.3408L22.0149 17.9289L17.7215 22.4182C17.6538 22.4889 17.6041 22.5744 17.5742 22.6674ZM17.8282 26.4713L18.1916 25.2013L18.5393 23.9866L19.785 25.006L17.8282 26.4713ZM29.707 11.7899L25.8413 28.2255C25.8394 28.2337 25.8368 28.245 25.8179 28.2514C25.7992 28.2577 25.79 28.2505 25.7836 28.2451L21.2422 24.5289C21.2421 24.5288 21.242 24.5286 21.2418 24.5286L19.1377 22.8067L25.8977 15.7384C26.1185 15.5076 26.1374 15.15 25.9422 14.8972C25.7469 14.6442 25.3962 14.572 25.117 14.7272L15.1074 20.2886L10.3137 18.1912C10.299 18.1848 10.291 18.1813 10.2922 18.1565C10.2933 18.1319 10.3017 18.1291 10.3168 18.1241L29.6608 11.7476C29.6702 11.7445 29.6807 11.741 29.6963 11.7552C29.7118 11.7695 29.7093 11.7803 29.707 11.7899Z" fill="#4A426D"/>
</g>
<defs>
<clipPath id="clip0_63_1299">
<rect width="22" height="22" fill="white" transform="translate(9 9)"/>
</clipPath>
</defs>
</svg>
