<svg width="20" height="20" viewBox="0 0 20 20" fill="none" xmlns="http://www.w3.org/2000/svg">
<circle cx="10" cy="10" r="10" fill="white" fill-opacity="0.3"/>
<path d="M9.99988 4C7.45008 4 5.37573 6.07463 5.37573 8.6247C5.37573 10.4468 6.13859 12.29 7.58185 13.9549C8.65982 15.1985 9.72811 15.9031 9.7731 15.9325C9.84197 15.9775 9.92095 16 9.99994 16C10.0789 16 10.1578 15.9775 10.2268 15.9325C10.2717 15.9031 11.3402 15.1985 12.4181 13.955C13.8615 12.29 14.6244 10.4468 14.6244 8.6247C14.6244 6.07463 12.5498 4 9.99988 4ZM9.99988 15.0765C9.14941 14.4427 6.20481 12.0037 6.20481 8.6247C6.20481 6.53178 7.90724 4.82908 9.99988 4.82908C12.0927 4.82908 13.7953 6.53178 13.7953 8.6247C13.7953 12.0037 10.8504 14.4427 9.99988 15.0765Z" fill="white"/>
<path d="M10.0001 6.78833C8.98812 6.78833 8.16479 7.61171 8.16479 8.62385C8.16479 9.63571 8.98812 10.4589 10.0001 10.4589C11.0122 10.4589 11.8354 9.63571 11.8354 8.62385C11.8354 7.61177 11.0121 6.78833 10.0001 6.78833ZM10.0001 9.62985C9.44528 9.62985 8.99387 9.17856 8.99387 8.62385C8.99387 8.06887 9.44528 7.61741 10.0001 7.61741C10.555 7.61741 11.0064 8.06887 11.0064 8.62385C11.0064 9.17856 10.555 9.62985 10.0001 9.62985Z" fill="white"/>
</svg>
