<svg width="25" height="26" viewBox="0 0 25 26" fill="none" xmlns="http://www.w3.org/2000/svg">
<circle cx="12.5" cy="13.1338" r="12.5" fill="white" fill-opacity="0.75"/>
<g clip-path="url(#clip0_63_541)">
<path d="M12.4999 5.63379C9.3126 5.63379 6.71967 8.22707 6.71967 11.4147C6.71967 13.6923 7.67324 15.9963 9.47731 18.0775C10.8248 19.6319 12.1601 20.5126 12.2164 20.5494C12.3025 20.6057 12.4012 20.6338 12.4999 20.6338C12.5986 20.6338 12.6973 20.6057 12.7835 20.5494C12.8396 20.5126 14.1752 19.6319 15.5227 18.0775C17.3269 15.9963 18.2805 13.6923 18.2805 11.4147C18.2804 8.22707 15.6872 5.63379 12.4999 5.63379ZM12.4999 19.4794C11.4368 18.6872 7.75601 15.6384 7.75601 11.4147C7.75601 8.79851 9.88404 6.67013 12.4999 6.67013C15.1159 6.67013 17.2441 8.79851 17.2441 11.4147C17.2441 15.6384 13.563 18.6872 12.4999 19.4794Z" fill="#333333"/>
<path d="M12.5002 9.11938C11.2352 9.11938 10.206 10.1486 10.206 11.4138C10.206 12.6786 11.2352 13.7076 12.5002 13.7076C13.7652 13.7076 14.7943 12.6786 14.7943 11.4138C14.7943 10.1487 13.7652 9.11938 12.5002 9.11938ZM12.5002 12.6713C11.8066 12.6713 11.2423 12.1072 11.2423 11.4138C11.2423 10.7201 11.8066 10.1557 12.5002 10.1557C13.1937 10.1557 13.758 10.7201 13.758 11.4138C13.758 12.1072 13.1937 12.6713 12.5002 12.6713Z" fill="#333333"/>
</g>
<defs>
<clipPath id="clip0_63_541">
<rect width="15" height="15" fill="white" transform="translate(5 5.63379)"/>
</clipPath>
</defs>
</svg>
