<svg width="40" height="40" viewBox="0 0 40 40" fill="none" xmlns="http://www.w3.org/2000/svg">
<circle cx="20" cy="20" r="19.5" fill="white" stroke="#E7E5EF"/>
<g clip-path="url(#clip0_63_1290)">
<path d="M20.276 27.4363C23.4587 27.4363 22.3238 25.4214 22.5695 24.8421C22.5658 24.4094 22.5622 23.9933 22.5768 23.7403C22.7785 23.7971 23.2542 24.0382 24.2369 24.9934C25.754 26.5242 26.1417 27.4363 27.3673 27.4363H29.6232C30.3382 27.4363 30.7104 27.1402 30.8965 26.8918C31.0762 26.6516 31.2522 26.2299 31.0597 25.5736C30.5564 23.9933 27.6212 21.2644 27.4388 20.9765C27.4663 20.9234 27.5103 20.8528 27.5332 20.8161H27.5314C28.1107 20.0507 30.3217 16.7379 30.6472 15.4124C30.6481 15.4105 30.649 15.4078 30.649 15.405C30.825 14.8 30.6637 14.4077 30.4968 14.1859C30.2456 13.854 29.846 13.6863 29.3061 13.6863H27.0501C26.2948 13.6863 25.7219 14.0667 25.4322 14.7606C24.9473 15.9935 23.5851 18.529 22.564 19.4264C22.5328 18.155 22.5539 17.1843 22.5704 16.4629C22.6034 15.0558 22.7097 13.6863 21.2495 13.6863H17.7038C16.789 13.6863 15.9136 14.6854 16.8614 15.8716C17.6901 16.9111 17.1593 17.4904 17.3381 20.3743C16.6414 19.6272 15.4021 17.6096 14.5257 15.031C14.2801 14.3334 13.9079 13.6872 12.8601 13.6872H10.6042C9.6894 13.6872 9.14307 14.1859 9.14307 15.0209C9.14307 16.8964 13.2947 27.4363 20.276 27.4363ZM12.8601 15.0622C13.0591 15.0622 13.0792 15.0622 13.2268 15.4811C14.1242 18.1239 16.1372 22.0344 17.6076 22.0344C18.7122 22.0344 18.7121 20.9023 18.7121 20.476L18.7112 17.0825C18.6507 15.9596 18.2419 15.4004 17.9733 15.0613L21.189 15.0649C21.1908 15.0805 21.1707 18.8187 21.1981 19.7244C21.1981 21.0104 22.2193 21.7474 23.8134 20.1341C25.4955 18.2357 26.6587 15.3977 26.7055 15.2822C26.7742 15.1172 26.8338 15.0613 27.0501 15.0613H29.3061H29.3152C29.3143 15.064 29.3143 15.0668 29.3134 15.0695C29.1071 16.032 27.0712 19.0992 26.3902 20.0516C26.3792 20.0663 26.3691 20.0819 26.359 20.0974C26.0592 20.5869 25.8154 21.1278 26.4002 21.8886C26.4534 21.9528 26.5927 22.1031 26.7944 22.3121C27.4214 22.9593 29.5719 25.1721 29.7626 26.0521C29.6361 26.0723 29.4986 26.0576 27.3673 26.0622C26.9136 26.0622 26.5588 25.3839 25.2049 24.018C23.9876 22.8337 23.1974 22.3497 22.4778 22.3497C21.0808 22.3497 21.1826 23.4836 21.1954 24.8549C21.2 26.3418 21.1908 25.8715 21.2009 25.965C21.1193 25.9971 20.8856 26.0613 20.276 26.0613C14.4597 26.0613 10.6721 16.8295 10.5263 15.0649C10.5767 15.0604 11.2706 15.0631 12.8601 15.0622Z" fill="#403865"/>
</g>
<defs>
<clipPath id="clip0_63_1290">
<rect width="22" height="22" fill="white" transform="translate(9.14307 9.56128)"/>
</clipPath>
</defs>
</svg>
