<svg width="87" height="85" viewBox="0 0 87 85" fill="none" xmlns="http://www.w3.org/2000/svg">
<rect x="0.75" width="75" height="75" rx="5" fill="#F9F7FF"/>
<g clip-path="url(#clip0_63_203)">
<path d="M80.1213 17.4292C75.5982 13.44 69.5026 11.732 63.5652 12.7903C57.4102 13.8916 52.0192 17.5706 48.75 22.9007C45.4809 17.5706 40.0899 13.8916 33.9349 12.7903C27.9977 11.7336 21.9026 13.4414 17.3788 17.4292C11.9389 22.4148 9.99672 30.8406 12.0501 40.5482C12.0577 40.5847 12.0822 40.6118 12.0929 40.6468C12.1452 40.8051 12.2253 40.9528 12.3296 41.0829C12.3532 41.1113 12.3629 41.1465 12.3897 41.1733C12.4242 41.1991 12.4601 41.2229 12.4973 41.2449C12.5611 41.2972 12.6299 41.3431 12.7029 41.3814C12.8422 41.4545 12.9944 41.5002 13.151 41.5158C13.1924 41.5199 13.2319 41.5396 13.2733 41.5396C13.318 41.5333 13.3624 41.5247 13.406 41.5137C13.4481 41.5156 13.4901 41.5153 13.532 41.5127C13.5686 41.5049 13.5957 41.4806 13.631 41.4699C13.7102 41.445 13.7865 41.412 13.8587 41.3715C13.9333 41.3325 14.0036 41.2858 14.0685 41.232C14.0963 41.2087 14.1309 41.1993 14.157 41.1733L18.5542 36.7772L18.5689 36.7675C19.5328 35.8008 21.0945 35.7878 22.0746 36.7381C23.0546 37.6884 23.0896 39.2498 22.1529 40.243L14.9407 47.4553C14.6237 47.7704 14.4992 48.231 14.614 48.663C14.7289 49.095 15.0658 49.4328 15.4974 49.5488C15.9289 49.6648 16.3898 49.5416 16.7059 49.2255L23.8392 42.0924C23.849 42.083 23.8621 42.0803 23.8719 42.0707C23.8905 42.0521 23.9023 42.0297 23.9207 42.0109L28.2559 37.6756C28.2669 37.6654 28.2816 37.6623 28.2923 37.6516C29.2804 36.7042 30.8395 36.7042 31.8276 37.6516C32.7965 38.6239 32.8014 40.1953 31.8386 41.1736L31.8239 41.1832L18.5139 54.4945C18.1982 54.8104 18.0749 55.2705 18.1905 55.7019C18.306 56.1333 18.643 56.4701 19.0743 56.5857C19.5055 56.7013 19.9658 56.5779 20.2816 56.2622L31.8362 44.7212L31.8664 44.6908C32.8542 43.7408 34.423 43.7641 35.3822 44.743C36.3414 45.7218 36.3328 47.2908 35.363 48.2591L32.7131 50.9094L32.7116 50.9106L32.7111 50.9113L23.0528 60.57C22.737 60.8858 22.6138 61.346 22.7294 61.7774C22.845 62.2086 23.1819 62.5456 23.6132 62.6612C24.0444 62.7767 24.5047 62.6534 24.8206 62.3377L34.4808 52.6767C35.4573 51.7005 37.0403 51.7009 38.0166 52.6774C38.9928 53.654 38.9925 55.2369 38.0158 56.2132C38.0106 56.2184 38.0091 56.2259 38.0038 56.2313L28.3157 65.9194C28.3094 65.9257 28.3078 65.9344 28.3016 65.9407C28.2952 65.9473 28.2864 65.9495 28.2803 65.9561C28.2346 66.0172 28.195 66.0823 28.1619 66.151C28.1134 66.2158 28.0714 66.2852 28.0362 66.358C28.0131 66.4354 27.9975 66.5148 27.9901 66.5951C27.9392 66.7461 27.9426 66.9102 27.9993 67.0591C28.0101 67.1393 28.0289 67.2182 28.0551 67.2947C28.0941 67.3678 28.1399 67.437 28.1924 67.5013C28.2275 67.5669 28.2688 67.6292 28.3159 67.687C28.3222 67.6933 28.3308 67.6951 28.3371 67.7011C28.3437 67.7074 28.3459 67.7162 28.3525 67.7223C34.4575 73.2063 41.0692 78.0986 48.0984 82.3337C48.4988 82.5779 49.002 82.5779 49.4022 82.3337C56.4314 78.0986 63.043 73.2063 69.148 67.7223C69.1548 67.7162 69.1568 67.7074 69.1634 67.7011C69.1697 67.6949 69.1784 67.6932 69.1847 67.687C69.2315 67.6292 69.2729 67.5669 69.3082 67.5013C69.3605 67.4371 69.4065 67.3678 69.4454 67.2947C69.4853 67.1407 69.519 66.9852 69.5461 66.8284C69.5415 66.7496 69.5297 66.6715 69.5103 66.5951C69.5028 66.5146 69.4875 66.4352 69.4642 66.358C69.429 66.2852 69.3868 66.2158 69.3385 66.151C69.3054 66.0823 69.2657 66.0172 69.22 65.9561C69.2138 65.9493 69.205 65.9473 69.1986 65.9407C69.1924 65.9344 69.1908 65.9257 69.1845 65.9194L59.4964 56.2313C59.4911 56.2259 59.4897 56.2186 59.4844 56.2132C58.5079 55.2369 58.5076 53.654 59.4837 52.6774C60.4599 51.7009 62.0429 51.7006 63.0194 52.6767L72.6797 62.3377C73.1678 62.8258 73.9591 62.8258 74.4474 62.3377C74.9355 61.8496 74.9355 61.0581 74.4474 60.57L64.7893 50.9109L64.7887 50.9102L64.7873 50.909L62.1374 48.2585C61.5056 47.627 61.2589 46.7064 61.4899 45.8436C61.7209 44.9807 62.3948 44.3066 63.2576 44.0753C64.1204 43.844 65.0411 44.0905 65.6728 44.722L65.6878 44.732L77.2189 56.262C77.7077 56.7458 78.4957 56.7439 78.9821 56.2574C79.4684 55.7711 79.4705 54.9831 78.9865 54.4942L67.4501 42.9688L67.4404 42.9543C67.4325 42.9463 67.4227 42.9411 67.4146 42.9332L65.6763 41.1829L65.6727 41.1804C64.6975 40.2048 64.6976 38.6234 65.6733 37.6482C66.6489 36.673 68.2303 36.6732 69.2055 37.6488C69.2162 37.6595 69.2308 37.6627 69.2417 37.673L73.4586 41.8899C73.509 41.95 73.5623 42.0055 73.6288 42.0721L73.6306 42.0742L73.6309 42.0743L73.6317 42.0754L80.794 49.2254C81.11 49.5415 81.5709 49.6648 82.0026 49.5487C82.4343 49.4326 82.7711 49.0948 82.8859 48.6628C83.0008 48.2308 82.8763 47.7704 82.5592 47.4551L75.386 40.2978C75.3643 40.27 75.3397 40.2445 75.3161 40.2183L75.3102 40.2088C74.4096 39.2223 74.4484 37.7007 75.3981 36.7614C76.3858 35.8165 77.9423 35.8165 78.9298 36.7614L83.3428 41.1733C83.3689 41.1993 83.4036 41.2087 83.4313 41.232C83.5618 41.3368 83.7099 41.4173 83.8689 41.4698C83.9042 41.4805 83.9313 41.5048 83.9679 41.5125C84.0526 41.5301 84.1389 41.5391 84.2253 41.5391L84.2266 41.5394H84.2271H84.2278C84.3797 41.5379 84.53 41.5086 84.6712 41.4528C84.7101 41.4337 84.7478 41.4126 84.7845 41.3896C84.8847 41.3411 84.9777 41.2793 85.0613 41.2059C85.0763 41.1923 85.0959 41.1876 85.1104 41.1733C85.1368 41.1469 85.1463 41.112 85.1697 41.0839C85.2342 41.0088 85.2893 40.9258 85.3335 40.8372C85.3616 40.7807 85.3854 40.7219 85.4041 40.6617C85.4213 40.6247 85.4365 40.5869 85.4497 40.5483C87.5032 30.8406 85.561 22.4148 80.1213 17.4292ZM83.409 37.7045L80.6975 34.9936C78.7201 33.1057 75.6079 33.1057 73.6304 34.9936C73.0124 35.6167 72.5685 36.3909 72.3429 37.2391L70.9849 35.8811C70.9657 35.8618 70.9398 35.8553 70.9194 35.8376C69.1877 34.1406 66.4857 33.9373 64.5196 35.3561C62.5536 36.7748 61.8949 39.4032 62.9596 41.5814C61.2372 41.9097 59.8146 43.12 59.2147 44.7674C58.6148 46.4149 58.926 48.2567 60.034 49.6156C59.1579 49.8276 58.3564 50.2751 57.7164 50.9099C55.7786 52.8545 55.7688 55.9972 57.6946 57.9538C57.7038 57.9637 57.7066 57.9769 57.7164 57.9866L66.4798 66.7501C60.9536 71.5984 55.0218 75.9641 48.7499 79.7993C42.478 75.964 36.5462 71.5984 31.02 66.7501L39.7834 57.9866C39.7932 57.9769 39.7959 57.9637 39.8052 57.9538C41.731 55.9971 41.7212 52.8545 39.7834 50.9099C39.1428 50.2757 38.3413 49.8283 37.4653 49.616C38.5729 48.2578 38.8845 46.417 38.2857 44.7698C37.6868 43.1226 36.2658 41.9117 34.5444 41.5818C35.4713 39.6736 35.0905 37.3882 33.5953 35.8834C31.6398 34.0138 28.5656 33.9925 26.5845 35.8351C26.5625 35.8543 26.5345 35.8613 26.5137 35.8823L25.1453 37.2506C24.9282 36.4006 24.4886 35.6237 23.8719 34.9997C21.931 33.0626 18.7921 33.05 16.8357 34.9714C16.8256 34.9809 16.8123 34.9837 16.8025 34.9935L14.0907 37.7043C12.962 29.8896 14.722 23.2549 19.0681 19.2724C23.042 15.835 28.3481 14.3608 33.5257 15.256C39.4037 16.2314 44.4211 20.0243 47.6524 25.9378C47.8912 26.313 48.3051 26.5403 48.7499 26.5403C49.1946 26.5403 49.6086 26.3131 49.8474 25.9378C53.0789 20.0243 58.0961 16.2315 63.9741 15.256C69.1516 14.3611 74.4575 15.8351 78.4317 19.2724C82.7778 23.2551 84.5379 29.8897 83.409 37.7045Z" fill="#423765"/>
</g>
<defs>
<clipPath id="clip0_63_203">
<rect width="75" height="75" fill="white" transform="translate(11.25 10)"/>
</clipPath>
</defs>
</svg>
