<svg width="25" height="25" viewBox="0 0 25 25" fill="none" xmlns="http://www.w3.org/2000/svg">
<circle cx="12.5" cy="12.5" r="12.5" fill="#9885A7"/>
<g clip-path="url(#clip0_63_529)">
<path d="M12.6723 17.1477C14.6615 17.1477 13.9522 15.8884 14.1057 15.5264C14.1035 15.2559 14.1012 14.9958 14.1103 14.8377C14.2364 14.8732 14.5337 15.0239 15.1479 15.6209C16.0961 16.5777 16.3384 17.1477 17.1044 17.1477H18.5143C18.9612 17.1477 19.1938 16.9627 19.3101 16.8074C19.4224 16.6573 19.5324 16.3937 19.4121 15.9835C19.0976 14.9958 17.2631 13.2903 17.1491 13.1104C17.1663 13.0771 17.1938 13.033 17.2081 13.0101H17.2069C17.569 12.5317 18.9509 10.4612 19.1543 9.63276C19.1549 9.63161 19.1554 9.62989 19.1554 9.62817C19.2654 9.25005 19.1646 9.00484 19.0603 8.86619C18.9033 8.6588 18.6536 8.55396 18.3161 8.55396H16.9062C16.4341 8.55396 16.076 8.79172 15.895 9.22541C15.5919 9.99599 14.7405 11.5807 14.1023 12.1416C14.0828 11.3469 14.096 10.7402 14.1063 10.2893C14.1269 9.40989 14.1934 8.55396 13.2807 8.55396H11.0647C10.4929 8.55396 9.9458 9.17843 10.5382 9.91979C11.0561 10.5695 10.7244 10.9316 10.8361 12.734C10.4007 12.267 9.62611 11.006 9.0784 9.39442C8.92486 8.95843 8.69225 8.55453 8.03741 8.55453H6.62746C6.05569 8.55453 5.71423 8.86619 5.71423 9.38812C5.71423 10.5603 8.30897 17.1477 12.6723 17.1477ZM8.03741 9.4139C8.16173 9.4139 8.17434 9.4139 8.26658 9.67573C8.82746 11.3274 10.0856 13.7715 11.0045 13.7715C11.6949 13.7715 11.6949 13.064 11.6949 12.7975L11.6943 10.6766C11.6565 9.97479 11.401 9.62531 11.2331 9.41333L13.2429 9.41562C13.2441 9.42536 13.2315 11.7617 13.2487 12.3278C13.2487 13.1316 13.8869 13.5922 14.8832 12.5839C15.9345 11.3973 16.6615 9.62359 16.6907 9.5514C16.7337 9.44828 16.771 9.41333 16.9062 9.41333H18.3161H18.3218C18.3213 9.41505 18.3213 9.41677 18.3207 9.41849C18.1918 10.02 16.9193 11.937 16.4937 12.5323C16.4868 12.5415 16.4805 12.5512 16.4742 12.5609C16.2868 12.8669 16.1344 13.2049 16.5 13.6804C16.5332 13.7205 16.6203 13.8145 16.7463 13.9451C17.1382 14.3496 18.4823 15.7326 18.6014 16.2826C18.5224 16.2952 18.4364 16.286 17.1044 16.2889C16.8208 16.2889 16.5991 15.8649 15.7529 15.0113C14.992 14.2711 14.4982 13.9686 14.0485 13.9686C13.1753 13.9686 13.2389 14.6773 13.2469 15.5344C13.2498 16.4636 13.2441 16.1697 13.2504 16.2282C13.1994 16.2482 13.0533 16.2883 12.6723 16.2883C9.03715 16.2883 6.66986 10.5185 6.57876 9.41562C6.61028 9.41276 7.04397 9.41448 8.03741 9.4139Z" fill="white"/>
</g>
<defs>
<clipPath id="clip0_63_529">
<rect width="13.75" height="13.75" fill="white" transform="translate(5.71423 5.97583)"/>
</clipPath>
</defs>
</svg>
