<svg width="85" height="85" viewBox="0 0 85 85" fill="none" xmlns="http://www.w3.org/2000/svg">
<rect width="75" height="75" rx="10" fill="#F9F7FF"/>
<path d="M18.5726 38.3087H25.7028C28.3278 38.3087 30.4636 40.4443 30.4636 43.0695V48.4944C30.4636 49.1013 30.9555 49.593 31.5622 49.593C32.1689 49.593 32.6608 49.1013 32.6608 48.4944V43.0695C32.6608 41.2296 31.9429 39.5543 30.7727 38.3087H48.28C47.3475 39.3013 46.7022 40.5667 46.4786 41.9709H44.6639C42.8047 41.9709 41.2921 43.4833 41.2921 45.3426V50.7319C41.2921 52.5911 42.8047 54.1037 44.6639 54.1037H46.3917V60.8322H32.6608V53.6215C32.6608 53.0146 32.1689 52.5229 31.5622 52.5229C30.9555 52.5229 30.4636 53.0146 30.4636 53.6215V72.2785C30.4636 76.4436 33.8522 79.8321 38.0172 79.8321C43.8464 79.8321 48.589 75.0896 48.589 69.2603V43.0695C48.589 40.4443 50.7246 38.3087 53.3497 38.3087H73.4298C79.8096 38.3087 84.9998 33.1182 84.9998 26.7385C84.9998 20.3588 79.8095 15.1685 73.4298 15.1685H24.5677C16.5331 15.1683 10 21.7055 10 29.736C10 34.4631 13.8457 38.3087 18.5726 38.3087ZM44.6639 51.9063C44.0163 51.9063 43.4894 51.3794 43.4894 50.7318V45.3425C43.4894 44.6949 44.0163 44.168 44.6639 44.168H46.3917V51.9062H44.6639V51.9063ZM46.3917 63.0293V66.6914H32.6608V63.0293H46.3917ZM38.0172 77.6348C35.0636 77.6348 32.6608 75.232 32.6608 72.2785V68.8887H46.3917V69.2603C46.3917 73.8779 42.635 77.6348 38.0172 77.6348ZM82.8027 26.7387C82.8027 31.9068 78.598 36.1115 73.4299 36.1115H52.0797C46.9114 36.1115 42.7067 31.9068 42.7067 26.7385C42.7067 21.5704 46.9114 17.3657 52.0797 17.3657H73.4299C78.598 17.3656 82.8027 21.5703 82.8027 26.7387ZM44.316 17.3656H45.3032C42.4007 19.4698 40.5095 22.8876 40.5095 26.7385C40.5095 30.5896 42.4007 34.0071 45.3032 36.1113H44.316C39.1478 36.1113 34.9431 31.9066 34.9431 26.7384C34.9431 21.5703 39.1478 17.3656 44.316 17.3656ZM24.5677 17.3656H37.5394C34.1271 19.8394 32.2419 24.0212 32.8614 28.3759H28.3831C27.7763 28.3759 27.2844 28.8677 27.2844 29.4746C27.2844 30.0814 27.7763 30.5732 28.3831 30.5732H33.399C34.1884 32.8141 35.6494 34.7413 37.5395 36.1115H18.5726C15.341 36.1115 12.6632 33.6945 12.2521 30.5732H23.256C23.8627 30.5732 24.3546 30.0814 24.3546 29.4746C24.3546 28.8677 23.8627 28.3759 23.256 28.3759H12.2715C12.9509 22.1924 18.2062 17.3656 24.5677 17.3656Z" fill="#423765"/>
<path d="M49.8586 21.9002V31.577C49.8586 32.6691 50.7472 33.5579 51.8396 33.5579H66.4577C67.0646 33.5579 67.5563 33.0661 67.5563 32.4592C67.5563 31.8523 67.0646 31.3606 66.4577 31.3606H65.5213L73.4536 23.4283V31.3606H71.5846C70.9777 31.3606 70.486 31.8523 70.486 32.4592C70.486 33.0661 70.9777 33.5579 71.5846 33.5579H73.6698C74.7622 33.5579 75.6507 32.6693 75.6507 31.577V21.9002C75.6507 20.8079 74.7619 19.9194 73.6698 19.9194H51.8396C50.7472 19.9194 49.8586 20.808 49.8586 21.9002ZM65.9565 22.1167L56.7126 31.3606H53.3564L62.6003 22.1167H65.9565ZM59.8202 31.3606L69.0641 22.1167H71.6574L62.4135 31.3606H59.8202ZM59.4928 22.1167L52.0558 29.5537V22.1167H59.4928Z" fill="#423765"/>
</svg>
