<svg width="85" height="85" viewBox="0 0 85 85" fill="none" xmlns="http://www.w3.org/2000/svg">
<rect width="75" height="75" rx="10" fill="#F9F7FF"/>
<g clip-path="url(#clip0_63_188)">
<path d="M47.5 22.7136C50.9329 22.7136 53.7256 19.9209 53.7256 16.488C53.7256 13.0552 50.9329 10.2625 47.5 10.2625C44.0671 10.2625 41.2744 13.0552 41.2744 16.488C41.2744 19.9209 44.0671 22.7136 47.5 22.7136ZM47.5 12.4597C49.7211 12.4597 51.5283 14.2669 51.5283 16.488C51.5283 18.7092 49.7211 20.5164 47.5 20.5164C45.2789 20.5164 43.4717 18.7092 43.4717 16.488C43.4717 14.2669 45.2789 12.4597 47.5 12.4597Z" fill="#423765"/>
<path d="M47.5 72.8113C44.0671 72.8113 41.2744 75.604 41.2744 79.0369C41.2744 81.4263 42.6065 83.567 44.7508 84.6239C44.9069 84.7008 45.0725 84.7373 45.2356 84.7373C45.641 84.7373 46.0308 84.5122 46.2219 84.124C46.4901 83.5796 46.2665 82.921 45.7221 82.6528C44.3339 81.9688 43.4717 80.5832 43.4717 79.0367C43.4717 76.8156 45.2789 75.0084 47.5 75.0084C49.7211 75.0084 51.5283 76.8156 51.5283 79.0367C51.5283 80.377 50.8642 81.6261 49.7515 82.3777C49.2486 82.7174 49.1165 83.4003 49.456 83.9031C49.7956 84.406 50.4789 84.5381 50.9813 84.1985C52.6996 83.0376 53.7254 81.108 53.7254 79.0369C53.7256 75.6042 50.9329 72.8113 47.5 72.8113Z" fill="#423765"/>
<path d="M78.7744 41.5369C75.3416 41.5369 72.5488 44.3296 72.5488 47.7624C72.5488 51.1953 75.3416 53.988 78.7744 53.988C82.2073 53.988 85 51.1953 85 47.7624C85 44.3296 82.2073 41.5369 78.7744 41.5369ZM78.7744 51.7908C76.5533 51.7908 74.7461 49.9836 74.7461 47.7624C74.7461 45.5413 76.5533 43.7341 78.7744 43.7341C80.9956 43.7341 82.8027 45.5413 82.8027 47.7624C82.8027 49.9836 80.9956 51.7908 78.7744 51.7908Z" fill="#423765"/>
<path d="M69.9121 31.9422C73.345 31.9422 76.1377 29.1495 76.1377 25.7166C76.1377 24.314 75.6823 22.9895 74.8205 21.8866C74.4467 21.4082 73.7564 21.3237 73.2785 21.6972C72.8002 22.0707 72.7155 22.7613 73.0891 23.2392C73.6461 23.9522 73.9404 24.809 73.9404 25.7166C73.9404 27.9377 72.1333 29.7449 69.9121 29.7449C67.691 29.7449 65.8838 27.9377 65.8838 25.7166C65.8838 23.7165 67.3747 22.0013 69.3518 21.7268C69.9528 21.6434 70.3724 21.0886 70.2889 20.4875C70.2054 19.8865 69.6492 19.4665 69.0496 19.5505C65.9922 19.9748 63.6865 22.6258 63.6865 25.7166C63.6865 29.1495 66.4792 31.9422 69.9121 31.9422Z" fill="#423765"/>
<path d="M25.3809 19.491C21.948 19.491 19.1553 22.2837 19.1553 25.7166C19.1553 29.1494 21.948 31.9421 25.3809 31.9421C28.8137 31.9421 31.6064 29.1494 31.6064 25.7166C31.6064 22.2837 28.8137 19.491 25.3809 19.491ZM25.3809 29.7449C23.1597 29.7449 21.3525 27.9377 21.3525 25.7166C21.3525 23.4954 23.1597 21.6882 25.3809 21.6882C27.602 21.6882 29.4092 23.4954 29.4092 25.7166C29.4092 27.9377 27.602 29.7449 25.3809 29.7449Z" fill="#423765"/>
<path d="M25.3809 63.8757C21.948 63.8757 19.1553 66.6685 19.1553 70.1013C19.1553 73.5342 21.948 76.3269 25.3809 76.3269C28.8137 76.3269 31.6064 73.5342 31.6064 70.1013C31.6064 66.6685 28.8137 63.8757 25.3809 63.8757ZM25.3809 74.1296C23.1597 74.1296 21.3525 72.3225 21.3525 70.1013C21.3525 67.8802 23.1597 66.073 25.3809 66.073C27.602 66.073 29.4092 67.8802 29.4092 70.1013C29.4092 72.3225 27.602 74.1296 25.3809 74.1296Z" fill="#423765"/>
<path d="M69.9121 63.8757C66.4792 63.8757 63.6865 66.6685 63.6865 70.1013C63.6865 73.5342 66.4792 76.3269 69.9121 76.3269C73.345 76.3269 76.1377 73.5342 76.1377 70.1013C76.1377 66.6685 73.345 63.8757 69.9121 63.8757ZM69.9121 74.1296C67.691 74.1296 65.8838 72.3225 65.8838 70.1013C65.8838 67.8802 67.691 66.073 69.9121 66.073C72.1333 66.073 73.9404 67.8802 73.9404 70.1013C73.9404 72.3225 72.1333 74.1296 69.9121 74.1296Z" fill="#423765"/>
<path d="M21.6175 50.8763C21.9215 50.3511 21.7422 49.6791 21.2169 49.3752C20.692 49.0717 20.0198 49.2506 19.7159 49.7759C18.9968 51.0186 17.6594 51.7908 16.2257 51.7908C14.0046 51.7908 12.1974 49.9836 12.1974 47.7624C12.1974 45.5413 14.0046 43.7341 16.2257 43.7341C17.6594 43.7341 18.9966 44.5061 19.7157 45.7489C20.0194 46.274 20.6916 46.4536 21.2169 46.1494C21.742 45.8456 21.9215 45.1735 21.6174 44.6482C20.5069 42.729 18.4407 41.5369 16.2256 41.5369C12.7927 41.5369 10 44.3296 10 47.7624C10 51.1953 12.7927 53.988 16.2256 53.988C18.4409 53.988 20.507 52.7958 21.6175 50.8763Z" fill="#423765"/>
<path d="M58.2403 40.4416C57.6367 40.4416 57.0551 40.5916 56.5363 40.8586C55.9394 39.4941 54.5705 38.5371 52.9804 38.5371C52.2292 38.5371 51.5272 38.7507 50.9327 39.1198C50.3132 37.8105 48.973 36.9018 47.4233 36.9018C46.8657 36.9018 46.3292 37.021 45.8423 37.2381V31.1435C45.8423 29.0194 44.1037 27.2915 41.9666 27.2915C39.8296 27.2915 38.091 29.0194 38.091 31.1435V40.2166H37.6697C35.1787 40.2166 33.1521 42.2556 33.1521 44.7618V48.565C33.1521 51.837 34.7179 54.9428 37.3407 56.873C38.1942 57.4141 39.1336 58.3909 39.5 59.4448H38.8574C38.2505 59.4448 37.7587 59.9366 37.7587 60.5435V67.1353C37.7587 67.7421 38.2505 68.2339 38.8574 68.2339H43.25C43.8569 68.2339 44.3486 67.7421 44.3486 67.1353C44.3486 66.5284 43.8569 66.0366 43.25 66.0366H39.956V61.6421H58.8525V66.0366H48.377C47.7701 66.0366 47.2783 66.5284 47.2783 67.1353C47.2783 67.7421 47.7701 68.2339 48.377 68.2339H59.9511C60.558 68.2339 61.0498 67.7421 61.0498 67.1353V60.5435C61.0498 59.9366 60.558 59.4448 59.9511 59.4448H59.1891C59.3164 58.3383 59.7173 57.2874 60.3676 56.3695C61.4316 54.8669 61.9941 53.0974 61.9941 51.252V44.2137C61.994 42.1337 60.3102 40.4416 58.2403 40.4416ZM59.7967 51.252C59.7967 52.6399 59.374 53.9704 58.5743 55.0997C57.6595 56.3911 57.1165 57.8801 56.9814 59.4448H41.7764C41.4771 57.8629 40.175 56.0906 38.6431 55.1035C36.5807 53.5856 35.3495 51.1412 35.3495 48.565V44.7618C35.3495 43.467 36.3903 42.4138 37.6698 42.4138H38.0911V48.439C38.0911 49.0406 38.5547 49.5652 39.1561 49.5832C39.7782 49.6018 40.2884 49.103 40.2884 48.485V31.1433C40.2884 30.2309 41.0413 29.4886 41.9668 29.4886C42.8923 29.4886 43.6452 30.2309 43.6452 31.1433V44.6675C43.6452 45.2691 44.1088 45.7937 44.7102 45.8117C45.3323 45.8303 45.8425 45.3315 45.8425 44.7135V40.8152C45.8425 39.5971 46.8163 38.8206 47.9788 39.1846C48.6162 39.3841 49.0846 39.9415 49.1018 40.7555C49.102 41.7021 49.112 43.7377 49.1145 44.7173C49.1166 45.3226 49.6077 45.8121 50.213 45.8121H50.2166C50.8228 45.8121 51.3137 45.3196 51.3118 44.7135L51.304 42.3541C51.3232 41.4579 52.067 40.7345 52.9805 40.7345C53.906 40.7345 54.6589 41.4766 54.6589 42.3891V44.6846C54.6589 45.2862 55.1226 45.8108 55.7239 45.8288C56.346 45.8474 56.8562 45.3486 56.8562 44.7306V44.0691C56.8473 43.4771 57.4052 42.6338 58.2403 42.639C59.0984 42.639 59.7967 43.3455 59.7967 44.2138V51.252Z" fill="#423765"/>
</g>
<defs>
<clipPath id="clip0_63_188">
<rect width="75" height="75" fill="white" transform="translate(10 10)"/>
</clipPath>
</defs>
</svg>
