<svg width="35" height="36" viewBox="0 0 35 36" fill="none" xmlns="http://www.w3.org/2000/svg">
<circle cx="17.5" cy="18.1338" r="17" fill="white" stroke="#EFD4E8"/>
<g clip-path="url(#clip0_63_576)">
<path d="M26.7481 10.0859C26.4384 9.80214 25.9982 9.70758 25.5993 9.83906L8.67324 15.4186C8.21196 15.5706 7.89915 15.9824 7.87632 16.4675C7.85354 16.9527 8.12631 17.392 8.57124 17.5867L12.7572 19.4182C12.7776 19.5129 13.9793 25.0863 14.0201 25.2757C14.0726 25.519 14.1961 25.7358 14.4577 25.8025C14.7224 25.8699 14.9093 25.7252 15.1068 25.5774C15.2167 25.4951 18.2131 23.2514 18.2131 23.2514L21.8446 26.2231C22.0562 26.3963 22.3147 26.4866 22.5783 26.4866C22.7038 26.4865 22.8305 26.4661 22.9537 26.4243C23.336 26.2947 23.6193 25.9827 23.7117 25.5899L27.0942 11.2087C27.1903 10.7998 27.0577 10.3696 26.7481 10.0859ZM15.3774 20.4677C15.3753 20.4725 15.3733 20.4781 15.3714 20.4847L14.6712 22.9311L13.8897 19.3069L19.2631 16.3214L15.5063 20.2495C15.4471 20.3114 15.4036 20.3863 15.3774 20.4677ZM15.5996 23.796L15.9177 22.6848L16.2219 21.6219L17.3119 22.5139L15.5996 23.796ZM25.9936 10.9498L22.6111 25.331C22.6095 25.3381 22.6072 25.348 22.5907 25.3536C22.5743 25.3591 22.5663 25.3528 22.5607 25.3481L18.5869 22.0964C18.5868 22.0963 18.5867 22.0962 18.5866 22.0961L16.7455 20.5895L22.6605 14.4048C22.8537 14.2028 22.8702 13.8899 22.6994 13.6686C22.5285 13.4473 22.2216 13.3841 21.9774 13.5199L13.219 18.3862L9.02444 16.5509C9.01166 16.5454 9.00463 16.5422 9.00565 16.5206C9.00666 16.4991 9.01395 16.4966 9.02719 16.4923L25.9532 10.9128C25.9614 10.9101 25.9706 10.907 25.9843 10.9194C25.9979 10.9319 25.9956 10.9414 25.9936 10.9498Z" fill="#403865"/>
</g>
<defs>
<clipPath id="clip0_63_576">
<rect width="19.25" height="19.25" fill="white" transform="translate(7.875 8.50879)"/>
</clipPath>
</defs>
</svg>
