<svg width="35" height="36" viewBox="0 0 35 36" fill="none" xmlns="http://www.w3.org/2000/svg">
<circle cx="17.5" cy="18.1338" r="17" fill="white" stroke="#EFD4E8"/>
<g clip-path="url(#clip0_63_567)">
<path d="M17.7413 24.6406C20.5261 24.6406 19.5332 22.8776 19.7481 22.3707C19.7449 21.9921 19.7417 21.628 19.7545 21.4066C19.931 21.4564 20.3473 21.6673 21.2071 22.5031C22.5346 23.8426 22.8738 24.6406 23.9462 24.6406H25.9201C26.5458 24.6406 26.8714 24.3816 27.0342 24.1642C27.1915 23.954 27.3454 23.5851 27.177 23.0108C26.7367 21.628 24.1684 19.2402 24.0088 18.9883C24.0328 18.9418 24.0713 18.8801 24.0914 18.848H24.0898C24.5967 18.1782 26.5313 15.2795 26.8161 14.1197C26.8169 14.1181 26.8177 14.1157 26.8177 14.1133C26.9717 13.5839 26.8305 13.2406 26.6845 13.0465C26.4648 12.7562 26.1151 12.6094 25.6426 12.6094H23.6687C23.0078 12.6094 22.5065 12.9422 22.253 13.5494C21.8287 14.6282 20.6368 16.8468 19.7433 17.632C19.716 16.5195 19.7345 15.6701 19.7489 15.0389C19.7778 13.8077 19.8708 12.6094 18.5931 12.6094H15.4907C14.6902 12.6094 13.9242 13.4836 14.7535 14.5215C15.4786 15.4311 15.0142 15.938 15.1706 18.4614C14.561 17.8077 13.4766 16.0423 12.7098 13.786C12.4949 13.1756 12.1692 12.6102 11.2524 12.6102H9.27852C8.47804 12.6102 8 13.0465 8 13.7772C8 15.4183 11.6326 24.6406 17.7413 24.6406ZM11.2524 13.8133C11.4265 13.8133 11.4441 13.8133 11.5733 14.1799C12.3585 16.4923 14.1199 19.9139 15.4064 19.9139C16.3729 19.9139 16.3729 18.9234 16.3729 18.5504L16.3721 15.5811C16.3192 14.5985 15.9615 14.1093 15.7265 13.8125L18.5402 13.8157C18.5418 13.8293 18.5241 17.1002 18.5482 17.8927C18.5482 19.018 19.4417 19.6629 20.8365 18.2512C22.3084 16.5901 23.3262 14.1069 23.3671 14.0058C23.4273 13.8614 23.4794 13.8125 23.6687 13.8125H25.6426H25.6506C25.6498 13.8149 25.6498 13.8173 25.649 13.8197C25.4686 14.6619 23.6871 17.3457 23.0912 18.179C23.0816 18.1919 23.0728 18.2055 23.0639 18.2191C22.8016 18.6475 22.5883 19.1207 23.1 19.7864C23.1465 19.8426 23.2685 19.9741 23.4449 20.157C23.9935 20.7232 25.8752 22.6595 26.0421 23.4295C25.9314 23.4471 25.8111 23.4343 23.9462 23.4383C23.5492 23.4383 23.2388 22.8448 22.0541 21.6497C20.9889 20.6134 20.2975 20.1899 19.6679 20.1899C18.4455 20.1899 18.5346 21.182 18.5458 22.382C18.5498 23.6829 18.5418 23.2715 18.5506 23.3533C18.4792 23.3814 18.2747 23.4375 17.7413 23.4375C12.6521 23.4375 9.33788 15.3597 9.21034 13.8157C9.25446 13.8117 9.86164 13.8141 11.2524 13.8133Z" fill="#403865"/>
</g>
<defs>
<clipPath id="clip0_63_567">
<rect width="19.25" height="19.25" fill="white" transform="translate(8 9)"/>
</clipPath>
</defs>
</svg>
