<svg width="35" height="36" viewBox="0 0 35 36" fill="none" xmlns="http://www.w3.org/2000/svg">
<circle cx="17.5" cy="18.1338" r="17" fill="white" stroke="#EFD4E8"/>
<g clip-path="url(#clip0_63_571)">
<path d="M24.3908 11.243C22.6275 9.47972 20.2837 8.50879 17.7899 8.50879C17.7898 8.50879 17.7892 8.50879 17.789 8.50879C16.5557 8.50894 15.3537 8.74774 14.2168 9.21874C13.0798 9.68974 12.0611 10.3708 11.1889 11.243C9.42576 13.0061 8.45483 15.3504 8.45483 17.8439C8.45483 19.3309 8.81362 20.8087 9.49346 22.1253L7.92435 26.6079C7.81376 26.9242 7.89204 27.2678 8.12908 27.5047C8.29489 27.6707 8.51313 27.7588 8.73755 27.7588C8.83374 27.7588 8.93097 27.7426 9.02584 27.7094L13.5085 26.1405C14.8251 26.8203 16.3029 27.1791 17.7899 27.1791C20.2834 27.1791 22.6275 26.208 24.3908 24.4449C26.1539 22.6818 27.125 20.3375 27.125 17.844C27.125 15.3504 26.1541 13.0061 24.3908 11.243ZM23.5924 23.6465C22.0426 25.1966 19.9817 26.05 17.7899 26.05C16.449 26.05 15.117 25.7184 13.9376 25.0907C13.7238 24.977 13.471 24.9575 13.2441 25.0369L9.17153 26.4623L10.597 22.3897C10.6765 22.1625 10.6568 21.9097 10.5431 21.696C9.91556 20.517 9.58379 19.1849 9.58379 17.8439C9.58379 15.6521 10.4374 13.5912 11.9872 12.0414C13.537 10.4916 15.5975 9.63804 17.7892 9.63775H17.7899C19.9819 9.63775 22.0426 10.4913 23.5924 12.0414C25.1425 13.5912 25.996 15.6519 25.996 17.8439C25.996 20.0358 25.1425 22.0967 23.5924 23.6465Z" fill="#403865"/>
<path d="M21.2592 18.6778C20.8297 18.2484 20.1309 18.2484 19.7015 18.6778L19.2318 19.1475C18.0656 18.512 17.1218 17.5682 16.4862 16.402L16.9559 15.9323C17.3854 15.5029 17.3854 14.8041 16.9559 14.3746L15.6902 13.1089C15.2607 12.6795 14.5619 12.6795 14.1325 13.1089L13.12 14.1214C12.54 14.7014 12.5111 15.6985 13.0385 16.9291C13.4964 17.9975 14.3344 19.1719 15.3982 20.2356C16.4619 21.2994 17.6363 22.1374 18.7047 22.5953C19.2894 22.8459 19.8212 22.9708 20.2808 22.9708C20.7885 22.9708 21.2079 22.8182 21.5124 22.5138L22.5249 21.5012V21.5013C22.733 21.2932 22.8475 21.0166 22.8475 20.7225C22.8475 20.4281 22.733 20.1516 22.5249 19.9436L21.2592 18.6778ZM20.714 21.7154C20.5485 21.8809 20.0395 21.939 19.1496 21.5577C18.2099 21.155 17.1612 20.4019 16.1966 19.4372C15.2319 18.4726 14.479 17.424 14.0763 16.4844C13.6948 15.5945 13.7529 15.0853 13.9184 14.9198L14.9115 13.9267L16.1381 15.1535L15.5502 15.7415C15.2844 16.0073 15.2202 16.4105 15.3907 16.7448C16.1637 18.2604 17.3734 19.4701 18.8891 20.2431C19.2235 20.4136 19.6266 20.3496 19.8924 20.0836L20.4803 19.4957L21.7071 20.7225L20.714 21.7154Z" fill="#403865"/>
</g>
<defs>
<clipPath id="clip0_63_571">
<rect width="19.25" height="19.25" fill="white" transform="translate(7.875 8.50879)"/>
</clipPath>
</defs>
</svg>
